PathFileType	4	(X/Y/Z)	D:\Share\Shared_Data\Ergonomics\Sit To Stand Pertubation\S3\Unperturbed.trc
DataRate	CameraRate	NumFrames	NumMarkers	Units	OrigDataRate	OrigDataStartFrame	OrigNumFrames	
100	100	9	18	m	100	4820	191
Frame#	Time	R_Thigh			R_ASIS			R_Pelvis			V_Sacral			L_Pelvis			L_ASIS			Clavical			R_Acromium			L_Acromium			Sternum			Torso			R_Thigh_Med			R_Thigh_Lat			R_Shank_Med			R_Shank_Lat			R_Shank			R_Heel			R_Toe			
		X1	Y1	Z1	X2	Y2	Z2	X3	Y3	Z3	X4	Y4	Z4	X5	Y5	Z5	X6	Y6	Z6	X7	Y7	Z7	X8	Y8	Z8	X9	Y9	Z9	X10	Y10	Z10	X11	Y11	Z11	X12	Y12	Z12	X13	Y13	Z13	X14	Y14	Z14	X15	Y15	Z15	X16	Y16	Z16	X17	Y17	Z17	X18	Y18	Z18	

4820	48.19	0.27098926	0.62052386	0.12141338	0.16807256	0.70808868	0.14163834	0.076806908	0.76368054	0.20125621	-0.016947468	0.82058667	0.00627666	0.084629555	0.77739471	-0.19810913	0.17842589	0.71278827	-0.13853987	0.37109079	1.0610536	-0.0095715408	0.35785529	1.1391958	0.15172485	0.37731549	1.1355643	-0.158771	0.35386411	0.97696893	-0.0057199044	0.36859311	1.0424761	-0.071097397	0.39973114	0.45313046	0.092728699	0.37168826	0.42796951	0.20249681	0.26335788	0.10561832	0.093769737	0.23615121	0.097533257	0.17124794	0.28487924	0.26493454	0.20129666	0.18027194	0.04959008	0.11974869	0.3989592	0.054711159	0.13963191
4821	48.2	0.27519476	0.62309851	0.12153564	0.17223018	0.71566949	0.14143143	0.080892342	0.77078076	0.20087315	-0.012746145	0.82763916	0.0059864645	0.088871574	0.78442719	-0.19821616	0.18260043	0.71998016	-0.13841368	0.37349445	1.070796	-0.0097198973	0.35954459	1.1489249	0.15148329	0.37943655	1.1450931	-0.15895183	0.35685303	0.98665161	-0.0058885489	0.37127615	1.0522192	-0.071218269	0.40039294	0.45296637	0.092146271	0.37202521	0.42824463	0.20169063	0.26321735	0.10576735	0.093365692	0.23613217	0.097536407	0.17123572	0.2850264	0.26515314	0.20103542	0.18024277	0.049552017	0.11972974	0.39895358	0.054711823	0.13962254
4822	48.21	0.27935321	0.62570123	0.12169354	0.17644087	0.7234668	0.14125171	0.084889023	0.77798785	0.20045169	-0.0085766678	0.83482678	0.0058081026	0.093073112	0.79163293	-0.19829135	0.1866852	0.72734222	-0.13826733	0.37568225	1.0809242	-0.0098419209	0.36095267	1.1590171	0.15124741	0.38119046	1.1549562	-0.15914122	0.35972311	0.99671814	-0.0060179291	0.37376715	1.062325	-0.071299477	0.40085028	0.45286249	0.091560486	0.37218127	0.42858649	0.20086288	0.26309201	0.10589158	0.093033653	0.23610507	0.097535782	0.17123228	0.28506812	0.26541187	0.20074756	0.18022253	0.04954401	0.11973686	0.39894864	0.054715069	0.13961334
4823	48.22	0.28346475	0.62831818	0.12189116	0.18072488	0.73146472	0.14108389	0.088836945	0.78527716	0.20000002	-0.0044167929	0.84213995	0.005675189	0.097257126	0.79898621	-0.19834068	0.19068025	0.73485712	-0.13812506	0.37765936	1.0914109	-0.0099383783	0.36207135	1.1694362	0.15103291	0.38255588	1.1651261	-0.15935426	0.36247299	1.0071401	-0.0061073341	0.3760665	1.072761	-0.071345901	0.40108917	0.45282269	0.090984634	0.3721561	0.4289903	0.20002469	0.2629816	0.10599017	0.092786163	0.23606714	0.097531029	0.17123837	0.28499371	0.26570987	0.20043784	0.18021002	0.049565334	0.11977221	0.39894067	0.054723305	0.13960501
4824	48.23	0.2875311	0.6309361	0.1221302	0.18510583	0.73964648	0.14091713	0.092780563	0.79262634	0.19952827	-0.00024550115	0.84958405	0.005522367	0.10145253	0.80645679	-0.19837254	0.19457449	0.74249915	-0.13801318	0.3794288	1.1022228	-0.010012074	0.36289963	1.1801411	0.15085399	0.3835282	1.1755735	-0.15959828	0.36510214	1.017886	-0.0061559744	0.37817145	1.0834943	-0.071365616	0.4010968	0.45286102	0.090434814	0.37194986	0.42945306	0.19918912	0.26288257	0.10606689	0.092623314	0.23601703	0.097522781	0.17125508	0.28479623	0.26604654	0.20011363	0.18020383	0.04961544	0.11983697	0.39892682	0.054738396	0.13959846
4825	48.24	0.291552	0.6335415	0.12240852	0.18960435	0.74799365	0.14074402	0.096762733	0.80001416	0.19904686	0.0039528072	0.85714252	0.0053105965	0.10568974	0.8140119	-0.1983956	0.19836592	0.75025763	-0.13795303	0.38099173	1.1133206	-0.010067377	0.3634425	1.1910874	0.15072139	0.38412119	1.1862678	-0.1598719	0.36760931	1.0289205	-0.0061639776	0.3800766	1.0944912	-0.07136982	0.40087393	0.4530051	0.089929535	0.37156558	0.42997333	0.1983683	0.26279196	0.10612611	0.092541847	0.23595424	0.097513046	0.17128326	0.28447626	0.2664209	0.19978438	0.18020232	0.049693737	0.11993098	0.39890536	0.054761307	0.13959471
4826	48.25	0.29552484	0.63612207	0.1227207	0.19423386	0.75648541	0.14055818	0.10081887	0.80741956	0.19856439	0.0081883068	0.86476611	0.0050338244	0.10999557	0.82161774	-0.19841808	0.20207103	0.75813672	-0.13795892	0.38234848	1.1246593	-0.010109024	0.3637074	1.2022285	0.1506411	0.38436053	1.1971755	-0.16016966	0.36998987	1.0402039	-0.0061333385	0.38177689	1.1057167	-0.071371101	0.4004472	0.45329602	0.089488228	0.37101074	0.43055051	0.19757141	0.26270905	0.10617017	0.092540527	0.23588042	0.097505249	0.17132219	0.28404156	0.26683142	0.1994584	0.18020351	0.049797142	0.12005057	0.39887555	0.054792095	0.13959497
4827	48.26	0.29944543	0.63866693	0.12305958	0.19899945	0.76509851	0.14035361	0.10497359	0.81482092	0.19808578	0.012466265	0.87237457	0.0047174635	0.11438828	0.82924121	-0.19844768	0.20573413	0.76614423	-0.13803778	0.38349911	1.1361915	-0.010140818	0.36370135	1.2135172	0.15061488	0.38427115	1.2082584	-0.1604874	0.37223239	1.0516919	-0.0060692892	0.3832691	1.1171345	-0.071381317	0.39988089	0.45378403	0.089127876	0.37029681	0.43118393	0.19680229	0.26263599	0.10619838	0.09262262	0.23580074	0.097503616	0.17136852	0.28350403	0.26727618	0.19913994	0.18020467	0.049917473	0.12018623	0.39883746	0.054830124	0.13960023
4828	48.27	0.30330972	0.64116882	0.12341805	0.20389801	0.77380511	0.14012633	0.10924049	0.82219647	0.19761159	0.016787935	0.87986902	0.0044077311	0.1188742	0.83685052	-0.19849141	0.20944287	0.77428174	-0.13818518	0.38444388	1.147868	-0.010164558	0.36342938	1.224905	0.15064165	0.38387119	1.219473	-0.16082397	0.37431873	1.0633374	-0.0059807072	0.38455164	1.1287078	-0.071410324	0.39927945	0.45451697	0.088858826	0.3694371	0.43187177	0.19605779	0.26257706	0.1062073	0.092795303	0.23572227	0.097512993	0.17141747	0.28287659	0.2677525	0.19882809	0.18020363	0.050042332	0.12032382	0.39879178	0.054874218	0.13961105
